<?xml version="1.0" encoding="UTF-8"?>
<!DOCTYPE svg PUBLIC "-//W3C//DTD SVG 1.1//EN" "http://www.w3.org/Graphics/SVG/1.1/DTD/svg11.dtd">
<!-- Creator: CorelDRAW -->
<svg xmlns="http://www.w3.org/2000/svg" xml:space="preserve" width="6.82666in" height="6.82666in" style="shape-rendering:geometricPrecision; text-rendering:geometricPrecision; image-rendering:optimizeQuality; fill-rule:evenodd; clip-rule:evenodd"
viewBox="0 0 6.82666 6.82666"
 xmlns:xlink="http://www.w3.org/1999/xlink">
 <defs>
  <style type="text/css">
   <![CDATA[
    .fil3 {fill:none}
    .fil1 {fill:#5E391C}
    .fil2 {fill:#957833}
    .fil0 {fill:#C0942B}
   ]]>
  </style>
 </defs>
 <g id="Layer_x0020_1">
  <metadata id="CorelCorpID_0Corel-Layer"/>
  <g id="_252100392">
   <path id="_252101280" class="fil0" d="M1.51434 4.24059l0.0659331 -0.0544173 0.254941 -0.251173 0.465472 0.805291 -0.345941 0.0944843 -0.0843898 0.028374c-0.262441,-0.121106 -0.39063,-0.322909 -0.356016,-0.622559z"/>
   <polygon id="_252101232" class="fil0" points="2.85619,3.22333 3.29256,2.81189 4.00268,4.04059 3.42819,4.21278 "/>
   <path id="_252101112" class="fil1" d="M1.5516 4.20984l-0.356327 0.248394 -0.268772 0.177602c-0.0423465,0.0244488 -0.0664409,0.0799331 -0.0711614,0.149882 -0.00531496,0.0789449 -0.00330315,0.136976 0.047378,0.224756 0.0506811,0.0877835 0.0999331,0.118543 0.170957,0.153406 0.0629331,0.0308819 0.123035,0.0377677 0.165382,0.0133189l0.327661 -0.163453 0.349902 -0.166154c-0.0285079,-0.00778346 -0.0529252,-0.020752 -0.0856299,-0.0419409 -0.0813228,-0.0527047 -0.138606,-0.0973819 -0.205177,-0.212685 -0.0665709,-0.115299 -0.076622,-0.187256 -0.0816063,-0.284039 -0.00203937,-0.0397126 -0.000472441,-0.0701811 0.0073937,-0.0990866z"/>
   <path id="_252100656" class="fil1" d="M5.69892 3.00231c-0.138969,-0.115681 -0.289,-0.298213 -0.417146,-0.520173 -0.128146,-0.221953 -0.211209,-0.44315 -0.241909,-0.621346 -0.0132559,-0.0769449 -0.0166417,-0.146988 -0.0096811,-0.207343l-1.7103 1.1138c-0.055622,0.0321142 -0.0678543,0.138634 -0.0426575,0.284882 0.0493937,0.286685 0.285165,0.694972 0.50865,0.881008 0.114055,0.0949449 0.212425,0.13761 0.268043,0.1055l1.81972 -0.924264c-0.055752,-0.0241457 -0.114717,-0.0621024 -0.174728,-0.112059z"/>
   <path id="_252100536" class="fil0" d="M5.75467 2.20881c0.0920472,0.159429 0.175776,0.350646 0.207228,0.532909 0.0215197,0.124697 0.024752,0.306807 -0.101323,0.379594 -0.126075,0.0727913 -0.282169,-0.021063 -0.379402,-0.102047 -0.142122,-0.118366 -0.265858,-0.286484 -0.357906,-0.445917 -0.0920433,-0.159421 -0.175772,-0.350642 -0.20722,-0.532906 -0.0215157,-0.124697 -0.024748,-0.306811 0.101327,-0.379598 0.126075,-0.0727913 0.282165,0.0210709 0.379398,0.102051 0.142122,0.118366 0.265858,0.286496 0.357898,0.445913z"/>
   <path id="_252100872" class="fil2" d="M5.79301 2.77083c-0.0279606,-0.162043 -0.105075,-0.33463 -0.186854,-0.476276 -0.0817835,-0.14165 -0.192685,-0.29472 -0.319035,-0.399953 -0.0352283,-0.0293425 -0.0784961,-0.0612402 -0.121209,-0.0785276 -0.0161496,-0.00653937 -0.0459449,-0.016126 -0.0626575,-0.00647638 -0.0167165,0.00964961 -0.0233071,0.0402441 -0.0257205,0.0575039 -0.00638583,0.0456299 -0.000397638,0.0990551 0.00739764,0.144232 0.0279606,0.162043 0.105071,0.334626 0.18685,0.476272 0.0817756,0.141646 0.192685,0.294724 0.319039,0.399957 0.0352283,0.0293386 0.0785,0.0612323 0.121213,0.0785236 0.0161535,0.00654331 0.0459449,0.016126 0.0626575,0.00647638 0.0167165,-0.00964961 0.023311,-0.0402402 0.0257244,-0.0575 0.00637795,-0.0456339 0.000393701,-0.0990512 -0.00740551,-0.144232z"/>
   <path id="_252100416" class="fil1" d="M3.05108 3.03653l2.75591e-005 -0.00023622 -1.31066 0.83322c-0.0423465,0.0244488 -0.0516575,0.105535 -0.0324803,0.216874 0.0216535,0.125661 0.0447126,0.220146 0.137,0.379988 0.0922913,0.159854 0.162583,0.227063 0.260579,0.308642 0.0868346,0.0722756 0.161717,0.104764 0.204063,0.080311l1.3748 -0.716854 -5.51181e-005 -2.3622e-005c0.00301969,-0.00175984 0.00594094,-0.0033622 0.0089685,-0.00513386 -0.0066063,-0.00522441 -0.0132638,-0.010626 -0.0199803,-0.0162165 -0.128728,-0.107157 -0.263618,-0.274169 -0.384846,-0.484142 -0.121228,-0.209972 -0.195972,-0.411335 -0.224409,-0.576398 -0.00148819,-0.00861417 -0.00283465,-0.0170866 -0.00405906,-0.0254173 -0.00303937,0.00178346 -0.00592126,0.00360236 -0.00894488,0.00538583z"/>
  </g>
 </g>
 <rect class="fil3" width="6.82666" height="6.82666"/>
</svg>
